<?xml version="1.0" standalone="no"?>
<!DOCTYPE svg PUBLIC "-//W3C//DTD SVG 20010904//EN"
 "http://www.w3.org/TR/2001/REC-SVG-20010904/DTD/svg10.dtd">
<svg version="1.0" xmlns="http://www.w3.org/2000/svg"
 width="192.000000pt" height="192.000000pt" viewBox="0 0 192.000000 192.000000"
 preserveAspectRatio="xMidYMid meet">

<g transform="translate(0.000000,192.000000) scale(0.100000,-0.100000)"
fill="#000000" stroke="none">
<path d="M1290 965 c0 -619 2 -706 15 -711 22 -9 63 4 85 26 19 19 20 36 20
648 l0 627 35 20 c22 11 35 25 33 34 -5 26 -86 61 -140 61 l-48 0 0 -705z"/>
<path d="M446 1614 c-9 -24 -7 -1337 3 -1352 6 -11 17 -11 49 -2 76 20 72 -16
72 646 l0 592 35 22 c44 27 36 49 -32 77 -72 31 -119 37 -127 17z"/>
<path d="M872 893 l3 -568 37 -3 c27 -2 43 3 57 17 21 21 21 30 21 514 l0 494
26 12 c16 7 24 18 22 29 -4 23 -95 71 -136 72 l-32 0 2 -567z"/>
</g>
</svg>
