<?xml version="1.0" standalone="no"?>
<!DOCTYPE svg PUBLIC "-//W3C//DTD SVG 20010904//EN"
 "http://www.w3.org/TR/2001/REC-SVG-20010904/DTD/svg10.dtd">
<svg version="1.0" xmlns="http://www.w3.org/2000/svg"
 width="1155.000000pt" height="195.000000pt" viewBox="0 0 1155.000000 195.000000"
 preserveAspectRatio="xMidYMid meet">

<g transform="translate(0.000000,195.000000) scale(0.100000,-0.100000)"
fill="#000000" stroke="none">
<path d="M1250 1025 c0 -619 2 -706 15 -711 22 -9 63 4 85 26 19 19 20 36 20
648 l0 627 35 20 c22 11 35 25 33 34 -5 26 -86 61 -140 61 l-48 0 0 -705z"/>
<path d="M406 1674 c-9 -24 -7 -1337 3 -1352 6 -11 17 -11 49 -2 76 20 72 -16
72 646 l0 592 35 22 c44 27 36 49 -32 77 -72 31 -119 37 -127 17z"/>
<path d="M4180 1653 c-28 -10 -59 -46 -71 -80 -15 -48 -4 -97 32 -133 29 -29
34 -30 116 -30 82 0 86 1 114 31 55 59 46 152 -20 196 -27 18 -47 23 -95 22
-34 0 -68 -3 -76 -6z"/>
<path d="M6100 1653 c-28 -10 -59 -46 -71 -80 -15 -48 -4 -97 32 -133 29 -29
34 -30 116 -30 82 0 86 1 114 31 55 59 46 152 -20 196 -27 18 -47 23 -95 22
-34 0 -68 -3 -76 -6z"/>
<path d="M5253 1602 c-64 -23 -116 -62 -147 -110 -30 -47 -43 -90 -51 -174
l-7 -67 -101 -3 -102 -3 -3 -72 -3 -73 106 0 105 0 0 -335 0 -335 110 0 110 0
0 335 0 335 140 0 141 0 -3 73 -3 72 -137 3 -138 3 0 50 c0 128 99 193 217
144 67 -28 86 -22 116 40 15 31 27 62 27 71 0 8 -21 24 -47 36 -69 31 -256 36
-330 10z"/>
<path d="M7023 1590 c-224 -48 -361 -312 -339 -657 16 -246 105 -421 251 -493
45 -23 62 -25 180 -25 142 0 161 5 230 66 l35 31 0 -41 0 -41 100 0 100 0 -2
298 -3 297 -230 0 -230 0 -3 -78 -3 -79 131 4 131 3 -7 -40 c-27 -166 -143
-281 -259 -259 -124 23 -204 190 -205 426 -1 307 148 494 327 407 48 -23 98
-85 115 -142 11 -38 12 -38 52 -32 23 4 69 14 102 22 l61 15 -9 41 c-25 114
-112 218 -213 256 -67 25 -239 37 -312 21z"/>
<path d="M2887 1574 c-4 -4 -7 -263 -7 -576 l0 -568 105 0 105 0 0 250 0 250
205 0 205 0 0 -250 0 -250 105 0 105 0 0 538 c0 295 -3 554 -6 575 l-7 38 -96
-3 -96 -3 -3 -237 -2 -238 -205 0 -205 0 -2 238 -3 237 -95 3 c-53 1 -99 0
-103 -4z"/>
<path d="M11177 1574 c-4 -4 -7 -90 -7 -191 l0 -183 -37 24 c-52 34 -132 50
-228 43 -129 -8 -215 -58 -283 -165 -51 -79 -64 -146 -60 -291 3 -124 4 -129
41 -203 70 -143 165 -198 335 -198 106 1 153 13 207 54 l35 27 0 -30 0 -31
100 0 100 0 -2 573 -3 572 -95 3 c-53 1 -99 0 -103 -4z m-123 -487 c57 -32 93
-83 112 -157 37 -146 -13 -292 -120 -347 -48 -25 -137 -14 -183 24 -63 50 -87
104 -91 208 -2 50 1 108 7 131 35 130 172 200 275 141z"/>
<path d="M832 953 l3 -568 37 -3 c27 -2 43 3 57 17 21 21 21 30 21 514 l0 494
26 12 c16 7 24 18 22 29 -4 23 -95 71 -136 72 l-32 0 2 -567z"/>
<path d="M8907 1259 c-114 -27 -215 -132 -252 -262 -13 -45 -16 -89 -13 -186
3 -124 4 -129 41 -203 70 -143 165 -198 335 -198 106 1 153 13 207 54 l35 27
0 -30 0 -31 100 0 100 0 -2 408 -3 407 -95 0 c-91 0 -95 -1 -98 -22 -4 -28 -4
-28 -50 2 -20 13 -57 29 -82 34 -54 13 -170 12 -223 0z m227 -172 c57 -32 93
-83 112 -157 37 -146 -13 -292 -120 -347 -48 -25 -137 -14 -183 24 -63 50 -87
104 -91 208 -2 50 1 108 7 131 35 130 172 200 275 141z"/>
<path d="M10069 1257 c-46 -13 -95 -43 -120 -73 -13 -16 -14 -14 -19 22 l-5
39 -95 0 -95 0 -3 -407 -2 -408 105 0 105 0 0 233 c0 277 7 315 74 382 53 53
115 71 194 56 29 -6 61 -15 72 -21 10 -5 32 -10 49 -10 l31 0 0 85 c0 76 -2
85 -21 96 -33 17 -216 21 -270 6z"/>
<path d="M3927 1244 c-4 -4 -7 -40 -7 -81 l0 -73 115 0 115 0 0 -250 0 -249
-137 -3 -138 -3 -3 -77 -3 -78 386 0 385 0 0 74 c0 89 6 86 -162 86 l-118 0
-2 328 -3 327 -211 3 c-115 1 -213 -1 -217 -4z"/>
<path d="M5847 1244 c-4 -4 -7 -40 -7 -81 l0 -73 115 0 115 0 0 -250 0 -249
-137 -3 -138 -3 -3 -77 -3 -78 386 0 385 0 0 74 c0 89 6 86 -162 86 l-118 0
-2 328 -3 327 -211 3 c-115 1 -213 -1 -217 -4z"/>
<path d="M7715 1240 c-11 -18 4 -609 17 -650 25 -81 92 -148 170 -171 45 -13
187 -13 236 0 21 6 56 22 76 36 45 31 46 31 46 0 0 -25 0 -25 100 -25 l99 0
-2 408 -2 407 -100 0 -100 0 -5 -265 c-5 -284 -8 -297 -64 -358 -73 -81 -202
-65 -240 28 -13 34 -16 87 -16 315 l0 275 -28 0 c-16 0 -63 3 -104 6 -54 5
-77 3 -83 -6z"/>
</g>
</svg>
